<svg xmlns="http://www.w3.org/2000/svg" xmlns:xlink="http://www.w3.org/1999/xlink" width="25.796" height="16" viewBox="0 0 25.796 16">
  <defs>
    <linearGradient id="linear-gradient" x1="0.5" x2="0.5" y2="1" gradientUnits="objectBoundingBox">
      <stop offset="0" stop-color="#ed8770"/>
      <stop offset="1" stop-color="#d9519d"/>
    </linearGradient>
  </defs>
  <g id="Group_2156" data-name="Group 2156" transform="translate(-24 -317)">
    <g id="Group_2153" data-name="Group 2153" transform="translate(24 323.245)">
      <path id="Path_68453" data-name="Path 68453" d="M16.451,208.867H1.667a1.668,1.668,0,0,0,0,3.336H16.451a1.668,1.668,0,0,0,0-3.336Z" transform="translate(7.678 -208.867)" fill="url(#linear-gradient)"/>
      <circle id="Ellipse_43" data-name="Ellipse 43" cx="2" cy="2" r="2" transform="translate(0 -0.245)" fill="url(#linear-gradient)"/>
    </g>
    <g id="Group_2154" data-name="Group 2154" transform="translate(24 317)">
      <path id="Path_68453-2" data-name="Path 68453" d="M16.451,208.867H1.667a1.668,1.668,0,0,0,0,3.336H16.451a1.668,1.668,0,0,0,0-3.336Z" transform="translate(7.678 -208.867)" fill="url(#linear-gradient)"/>
      <circle id="Ellipse_43-2" data-name="Ellipse 43" cx="2" cy="2" r="2" fill="url(#linear-gradient)"/>
    </g>
    <g id="Group_2155" data-name="Group 2155" transform="translate(24 329.49)">
      <path id="Path_68453-3" data-name="Path 68453" d="M16.451,208.867H1.667a1.668,1.668,0,0,0,0,3.336H16.451a1.668,1.668,0,0,0,0-3.336Z" transform="translate(7.678 -208.867)" fill="url(#linear-gradient)"/>
      <circle id="Ellipse_43-3" data-name="Ellipse 43" cx="2" cy="2" r="2" transform="translate(0 -0.49)" fill="url(#linear-gradient)"/>
    </g>
  </g>
</svg>
