<svg xmlns="http://www.w3.org/2000/svg" width="28" height="19" viewBox="0 0 28 19">
  <g id="Group_2067" data-name="Group 2067" transform="translate(-0.17 -0.323)">
    <g id="Group_2065" data-name="Group 2065">
      <path id="Polygon_4" data-name="Polygon 4" d="M8.655,1.334a1,1,0,0,1,1.69,0l7.683,12.131A1,1,0,0,1,17.183,15H1.817a1,1,0,0,1-.845-1.535Z" transform="translate(15.17 0.323) rotate(90)" fill="#e2e2e2"/>
    </g>
    <g id="Group_2066" data-name="Group 2066" transform="translate(12.319)">
      <path id="Polygon_4-2" data-name="Polygon 4" d="M8.64,1.448a1,1,0,0,1,1.72,0L18.1,14.489A1,1,0,0,1,17.243,16H1.757A1,1,0,0,1,.9,14.489Z" transform="translate(15.85 0.323) rotate(90)" fill="#e2e2e2"/>
    </g>
  </g>
</svg>
